<?xml version="1.0" encoding="utf-8"?>
<!-- Generator: Adobe Illustrator 16.0.0, SVG Export Plug-In . SVG Version: 6.00 Build 0)  -->
<!DOCTYPE svg PUBLIC "-//W3C//DTD SVG 1.1//EN" "http://www.w3.org/Graphics/SVG/1.1/DTD/svg11.dtd">
<svg version="1.1" id="Layer_1" xmlns="http://www.w3.org/2000/svg" xmlns:xlink="http://www.w3.org/1999/xlink" x="0px" y="0px"
	 width="588.716px" height="180.934px" viewBox="0 0 588.716 180.934" enable-background="new 0 0 588.716 180.934"
	 xml:space="preserve">
<g>
	<path fill="#005DE3" d="M69.587,134.544V90.463c0-14.067-11.439-25.506-25.506-25.506c-14.066,0-25.505,11.439-25.505,25.506
		v44.081H0V0h18.576v54.515c7.395-5.255,16.366-8.126,25.505-8.126c24.303,0,44.074,19.771,44.074,44.074v44.081H69.587z"/>
	<path fill="#005DE3" d="M476.951,180.934v-54.516c-7.411,5.255-16.382,8.126-25.514,8.126c-24.303,0-44.074-19.771-44.074-44.081
		V46.389h18.568v44.074c0,14.066,11.438,25.514,25.506,25.514s25.514-11.447,25.514-25.514V46.389h18.567v134.544H476.951z"/>
	<path fill="#005DE3" d="M374.021,134.544v-8.126c-7.402,5.255-16.374,8.126-25.506,8.126c-24.311,0-44.081-19.771-44.081-44.081
		c0-24.303,19.771-44.074,44.081-44.074c9.132,0,18.104,2.871,25.506,8.126V0h18.568v134.544H374.021z M348.515,64.957
		c-14.066,0-25.506,11.439-25.506,25.506c0,14.066,11.439,25.514,25.506,25.514c14.067,0,25.506-11.447,25.506-25.514
		C374.021,76.396,362.582,64.957,348.515,64.957z"/>
	<path fill="#005DE3" d="M273.992,134.544V90.463c0-14.067-11.439-25.506-25.505-25.506c-14.067,0-25.506,11.439-25.506,25.506
		v44.081h-18.576V46.389h18.576v8.126c7.395-5.255,16.367-8.126,25.506-8.126c24.303,0,44.074,19.771,44.074,44.074v44.081H273.992z
		"/>
	<path fill="#005DE3" d="M169.616,134.544v-8.126c-7.403,5.255-16.375,8.126-25.506,8.126c-24.311,0-44.082-19.771-44.082-44.081
		c0-24.303,19.771-44.074,44.082-44.074c9.131,0,18.103,2.871,25.506,8.126v-8.126h18.568v88.155H169.616z M144.11,64.957
		c-14.067,0-25.506,11.439-25.506,25.506c0,14.066,11.439,25.514,25.506,25.514c14.067,0,25.506-11.447,25.506-25.514
		C169.616,76.396,158.177,64.957,144.11,64.957z"/>
	<path fill="#005DE3" d="M510.294,134.544v-18.567h51.735c4.479,0,8.118-3.641,8.118-8.118c0-4.472-3.64-8.104-8.118-8.104h-26.923
		c-14.714,0-26.679-11.972-26.679-26.686s11.965-26.679,26.679-26.679h44.074v18.567h-44.074c-2.163,0-4.203,0.845-5.734,2.384
		c-1.531,1.523-2.376,3.565-2.376,5.728c0,4.47,3.64,8.111,8.11,8.111h26.923c14.715,0,26.687,11.965,26.687,26.68
		c0,14.713-11.972,26.686-26.687,26.686H510.294z"/>
</g>
</svg>
